<?xml version="1.0" encoding="UTF-8"?>
<svg xmlns="http://www.w3.org/2000/svg" version="1.1" viewBox="0 0 105.1 43.7">
  <defs>
    <style>
      .cls-1 {
        fill: #fff;
      }
    </style>
  </defs>
  <!-- Generator: Adobe Illustrator 28.7.1, SVG Export Plug-In . SVG Version: 1.2.0 Build 142)  -->
  <g>
    <g id="Layer_1">
      <g id="Layer_2">
        <g id="Layer_1-2">
          <g id="Layer_2-2">
            <g id="Design">
              <path class="cls-1" d="M49.7,16v11.8h-2.4v-9.5l-2.3.8-.4-1.9,3.3-1.2s1.8,0,1.8,0Z"/>
              <path class="cls-1" d="M53,16.7c.8-.7,1.8-1,2.9-1s2,.3,2.9,1c.7.6,1.1,1.5,1.1,2.5s0,1-.4,1.5c-.3.4-.7.8-1.1,1.1.5.3,1,.7,1.3,1.1.3.5.5,1.1.5,1.6,0,1-.4,1.9-1.1,2.5-.9.7-2,1.1-3.1,1-1.1,0-2.3-.3-3.1-1-.7-.6-1.1-1.6-1.1-2.5s.2-1.2.5-1.7.8-.9,1.3-1.1c-.5-.3-.9-.6-1.1-1.1-.3-.4-.5-1-.5-1.5,0-1,.4-1.9,1.2-2.5h-.2ZM55.9,22.7c-.5,0-1,.2-1.4.5s-.6.8-.6,1.2.2.9.5,1.2c.4.3.9.5,1.4.5s1-.1,1.4-.5c.7-.6.7-1.7,0-2.4h0c-.4-.4-.9-.5-1.4-.5h.2ZM57,18.2c-.7-.5-1.6-.5-2.3,0-.3.2-.4.6-.4,1s0,.8.4,1c.7.5,1.6.5,2.3,0,.3-.3.4-.6.4-1s-.2-.7-.5-1h0Z"/>
              <path class="cls-1" d="M61.8,12.4h-2.9v-2.4h2.9v-3.1h2.5v3h2.9v2.4h-2.9v3h-2.5v-3h0Z"/>
              <path class="cls-1" d="M52.6,37.9c-8.9,0-16.1-7.2-16.1-16s7.1-16.1,16-16.1,2.9.2,4.3.6l-1,3.8c-1-.3-2.1-.4-3.1-.4-6.7,0-12.2,5.4-12.2,12.1s5.4,12.2,12.1,12.2,12.2-5.4,12.2-12.1h0c0-1.1,0-2.1-.4-3.1l3.8-1c2.2,8.6-2.9,17.4-11.5,19.6-1.3.4-2.7.5-4.1.5h0Z"/>
            </g>
          </g>
        </g>
      </g>
    </g>
  </g>
</svg>