<svg width="24" height="25" viewBox="0 0 24 25" fill="none" xmlns="http://www.w3.org/2000/svg">
<mask id="mask0_3903_1791" style="mask-type:alpha" maskUnits="userSpaceOnUse" x="0" y="0" width="24" height="25">
<rect y="0.259766" width="24" height="24" fill="#D9D9D9"/>
</mask>
<g mask="url(#mask0_3903_1791)">
<path d="M15.75 20.5098C13.4667 20.5098 11.5208 19.7056 9.9125 18.0973C8.30417 16.4889 7.5 14.5431 7.5 12.2598C7.5 9.97377 8.30417 8.02727 9.9125 6.42027C11.5208 4.81327 13.4667 4.00977 15.75 4.00977C18.036 4.00977 19.9825 4.81327 21.5895 6.42027C23.1965 8.02727 24 9.97377 24 12.2598C24 14.5431 23.1965 16.4889 21.5895 18.0973C19.9825 19.7056 18.036 20.5098 15.75 20.5098ZM17.55 16.1098L19.6 14.0598L17.2 11.6598V8.30977H14.3V12.8598L17.55 16.1098ZM1 9.70977V6.80977H6.5V9.70977H1ZM0 13.7098V10.8098H6.5V13.7098H0ZM1 17.7098V14.8098H6.5V17.7098H1Z" fill="#EBFF3C"/>
</g>
</svg>
