<svg width="14" height="13" viewBox="0 0 14 13" fill="none" xmlns="http://www.w3.org/2000/svg">
<g clip-path="url(#clip0_2160_428)">
<path d="M0 3.14817V4.46183H2.15188L0 3.14817ZM1.78329 10.4618H4.97059V8.51617L1.78329 10.4618ZM8.79412 8.5165V10.4618H11.981L8.79412 8.5165ZM0 7.79517V9.10883L2.15265 7.79517H0ZM11.9818 1.79517H8.79412V3.74083L11.9818 1.79517ZM13.7647 9.10917V7.79517H11.6117L13.7647 9.10917ZM13.7647 4.46183V3.14817L11.6124 4.46183H13.7647ZM4.97059 1.79517H1.78329L4.97059 3.74083V1.79517Z" fill="#00247D"/>
<path d="M9.61189 7.79516L13.3253 10.0622C13.5067 9.89929 13.637 9.69854 13.7038 9.47916L10.9452 7.79516H9.61189ZM4.97013 7.79516H4.15151L0.438482 10.0618C0.637688 10.2385 0.8931 10.3648 1.17948 10.4235L4.97013 8.1095V7.79516ZM8.79366 4.46183H9.61228L13.3253 2.19516C13.1227 2.01592 12.8659 1.8905 12.5847 1.8335L8.79366 4.1475V4.46183ZM4.15151 4.46183L0.438482 2.19516C0.257229 2.35815 0.126794 2.55884 0.0595703 2.77816L2.81825 4.46183H4.15151Z" fill="#CF1B2B"/>
<path d="M13.7647 7.1285H8.02941V10.4618H8.79412V8.5165L11.981 10.4618H12.2353C12.4384 10.4619 12.6395 10.4265 12.8268 10.3579C13.014 10.2893 13.1837 10.1887 13.3258 10.0622L9.61235 7.79517H10.9456L13.7043 9.47917C13.7399 9.36683 13.7647 9.2505 13.7647 9.1285V9.10917L11.6117 7.79517H13.7647V7.1285ZM0 7.1285V7.79517H2.15265L0 9.10883V9.1285C0 9.49217 0.167853 9.82117 0.438941 10.0618L4.15197 7.79517H4.97059V8.1095L1.17994 10.4232C1.29235 10.4465 1.40859 10.4618 1.52941 10.4618H1.78329L4.97059 8.51617V10.4618H5.73529V7.1285H0ZM13.7647 3.1285C13.7649 2.77916 13.6072 2.44382 13.3258 2.19517L9.61274 4.46183H8.79412V4.1475L12.5851 1.8335C12.4706 1.80901 12.3532 1.79615 12.2353 1.79517H11.9818L8.79412 3.74083V1.79517H8.02941V5.1285H13.7647V4.46183H11.6124L13.7647 3.14817V3.1285ZM4.97059 1.79517V3.74083L1.78329 1.79517H1.52941C1.32624 1.79509 1.1251 1.83044 0.937827 1.89913C0.750555 1.96783 0.580933 2.06848 0.438941 2.19517L4.15197 4.46183H2.81871L0.0600294 2.77817C0.0220924 2.89207 0.0019016 3.0099 0 3.1285L0 3.14817L2.15188 4.46183H0V5.1285H5.73529V1.79517H4.97059Z" fill="#EEEEEE"/>
<path d="M8.02941 5.1285V1.79517H5.73529V5.1285H0V7.1285H5.73529V10.4618H8.02941V7.1285H13.7647V5.1285H8.02941Z" fill="#CF1B2B"/>
</g>
<defs>
<clipPath id="clip0_2160_428">
<rect width="13.7647" height="12" fill="white" transform="translate(0 0.128418)"/>
</clipPath>
</defs>
</svg>
