<?xml version="1.0" encoding="utf-8"?>
<!-- Generator: Adobe Illustrator 27.5.0, SVG Export Plug-In . SVG Version: 6.00 Build 0)  -->
<svg version="1.1" id="Layer_2_00000096747092519858595420000014253013394876261504_"
	 xmlns="http://www.w3.org/2000/svg" xmlns:xlink="http://www.w3.org/1999/xlink" x="0px" y="0px" viewBox="0 0 88 25.4"
	 style="enable-background:new 0 0 88 25.4;" xml:space="preserve">
<style type="text/css">
	.st0{fill:#FFFFFF;}
</style>
<g id="Layer_1-2">
	<path class="st0" d="M20.9,3.9h-7.3c-0.1,0-0.2,0.1-0.2,0.2v10.6c0,3.8,3.1,6.9,6.8,6.9h0.7c3.8,0,6.8-3.1,6.8-6.9v-4
		C27.7,6.9,24.6,3.9,20.9,3.9L20.9,3.9z M25.5,14.8c0,2.6-1.9,4.5-4.8,4.5c-3.5,0-5.1-2.1-5.1-4.9V11c0-2.8,1.6-4.9,5.1-4.9
		c2.8,0,4.1,1.6,4.6,3.2c0.1,0.2,0,0.4-0.2,0.5l-1.9,0.6c-0.2,0.1-0.3,0-0.4-0.2c-0.3-1-0.9-1.5-2.1-1.5c-1.8,0-2.4,1.1-2.4,2.5v3.3
		c0,1.4,0.6,2.5,2.4,2.5c1.5,0,2.2-0.7,2.2-2.2v-0.4h-2c-0.2,0-0.3-0.1-0.3-0.3v-1.8c0-0.2,0.1-0.3,0.3-0.3h4.3
		c0.2,0,0.3,0.1,0.3,0.3L25.5,14.8L25.5,14.8z"/>
	<path class="st0" d="M36.5,10.6c0,0.2,0,0.2-0.1,0.3l-1.2,0.3c-0.1,0-0.2,0-0.3-0.1c-0.2-0.6-0.6-0.9-1.3-0.9
		c-1.1,0-1.5,0.7-1.5,1.5v2c0,0.9,0.4,1.5,1.5,1.5c0.9,0,1.4-0.4,1.4-1.3v-0.3h-1.2c-0.1,0-0.2-0.1-0.2-0.2v-1.1
		c0-0.1,0.1-0.2,0.1-0.2c0,0,0,0,0,0h2.7c0.1,0,0.2,0.1,0.2,0.2V14c0,1.6-1.2,2.8-3,2.8c-2.2,0-3.2-1.3-3.2-3v-2.1c0-1.8,1-3,3.2-3
		C35.4,8.6,36.2,9.6,36.5,10.6C36.5,10.6,36.5,10.6,36.5,10.6z"/>
	<path class="st0" d="M40.1,10.5c-1.4,0-2.3,0.6-2.4,1.5c0,0.1,0,0.2,0.1,0.2l1.2,0.3c0.1,0,0.2,0,0.2-0.1c0.1-0.3,0.3-0.6,0.8-0.6
		c0.5,0,0.8,0.2,0.8,0.8v0.4c-0.4,0-0.7,0-1.1,0c-1.7,0.1-2.4,0.8-2.4,1.9s0.7,1.8,1.9,1.8c0.7,0,1.3-0.3,1.7-0.9v0.6c0,0,0,0,0,0
		c0,0.1,0.1,0.1,0.2,0.1h1.2c0,0,0,0,0,0c0.1,0,0.1-0.1,0.1-0.2v-3.9C42.5,11.2,41.6,10.5,40.1,10.5L40.1,10.5z M40.8,14.6
		c-0.2,0.6-0.6,0.8-1.1,0.8c-0.5,0-0.8-0.2-0.8-0.7c0-0.5,0.3-0.6,0.9-0.7c0.3,0,0.6,0,1,0L40.8,14.6L40.8,14.6z"/>
	<path class="st0" d="M46.8,10.5c0.8,0,1.3,0.4,1.5,1.1c0.4-0.7,1-1.1,1.7-1.1c1.1,0,1.7,0.8,1.7,2.1v3.9c0,0.1-0.1,0.2-0.2,0.2
		h-1.2c-0.1,0-0.2-0.1-0.2-0.2v-3.6c0-0.5-0.2-0.9-0.7-0.9s-0.8,0.4-0.9,0.9v3.6c0,0.1-0.1,0.2-0.1,0.2c0,0,0,0,0,0h-1.3
		c-0.1,0-0.1-0.1-0.1-0.2v-3.6c0-0.5-0.2-0.9-0.7-0.9c-0.5,0-0.8,0.4-0.9,0.9v3.5c0,0.1,0,0.2-0.1,0.2c0,0,0,0,0,0h-1.3
		c-0.1,0-0.2,0-0.2-0.1c0,0,0,0,0,0v-5.7c0-0.1,0.1-0.2,0.2-0.2c0,0,0,0,0,0H45c0.1,0,0.2,0.1,0.2,0.1c0,0,0,0,0,0v0.7
		C45.5,11,46,10.5,46.8,10.5L46.8,10.5L46.8,10.5z"/>
	<path class="st0" d="M58.5,10.7c0,0.1,0,0.3-0.1,0.3l-1.1,0.3c-0.1,0-0.2,0-0.3-0.1c-0.2-0.5-0.4-1-1.2-1c-1,0-1.3,0.7-1.3,1.5v2
		c0,0.9,0.4,1.5,1.3,1.5c0.8,0,1.2-0.5,1.3-1.1c0-0.1,0.1-0.2,0.3-0.1l1.1,0.4c0.1,0,0.2,0.1,0.1,0.3c-0.3,1.2-1.1,2.1-2.9,2.1
		c-2,0-3-1.3-3-3v-2.1c0-1.8,1-3,3-3C57.4,8.6,58.2,9.5,58.5,10.7L58.5,10.7z"/>
	<path class="st0" d="M61.9,10.5c-1.4,0-2.3,0.6-2.4,1.5c0,0.1,0,0.2,0.1,0.2l1.2,0.3c0.1,0,0.2,0,0.2-0.1c0.1-0.3,0.3-0.6,0.8-0.6
		s0.8,0.2,0.8,0.8v0.4c-0.4,0-0.7,0-1.1,0c-1.7,0.1-2.4,0.8-2.4,1.9s0.7,1.8,1.9,1.8c0.7,0,1.3-0.3,1.7-0.9v0.6c0,0,0,0,0,0
		c0,0.1,0.1,0.1,0.2,0.1h1.2c0,0,0,0,0,0c0.1,0,0.1-0.1,0.1-0.2v-3.9C64.3,11.2,63.4,10.5,61.9,10.5L61.9,10.5z M62.7,14.6
		c-0.2,0.6-0.6,0.8-1.1,0.8c-0.5,0-0.8-0.2-0.8-0.7c0-0.5,0.3-0.6,0.9-0.7c0.3,0,0.6,0,1,0L62.7,14.6L62.7,14.6z"/>
	<path class="st0" d="M68.9,10.8v1.2c0,0.1-0.1,0.2-0.2,0.2h-0.2c-0.9,0-1.4,0.4-1.6,1v3.3c0,0.1,0,0.2-0.1,0.2c0,0,0,0,0,0h-1.4
		c-0.1,0-0.1-0.1-0.1-0.2l0,0v-5.7c0-0.1,0.1-0.1,0.1-0.2c0,0,0,0,0,0h1.2c0.1,0,0.2,0.1,0.2,0.2v0.8c0.3-0.5,0.8-1.1,1.7-1.1
		C68.9,10.6,68.9,10.6,68.9,10.8L68.9,10.8L68.9,10.8z"/>
	<path class="st0" d="M74.4,14.2c0.2,0,0.3-0.1,0.3-0.3v-1c0-1.3-0.8-2.4-2.5-2.4c-1.8,0-2.6,1.1-2.6,2.4v1.4c0,1.4,0.9,2.4,2.7,2.4
		c1.1,0,2.1-0.5,2.4-1.3c0.1-0.2,0.1-0.3-0.1-0.3l-0.9-0.4c-0.2-0.1-0.2-0.1-0.3,0.1c-0.2,0.4-0.4,0.6-1.1,0.6
		c-0.7,0-1.1-0.4-1.1-1.1v-0.2L74.4,14.2L74.4,14.2z M71.1,12.9L71.1,12.9c0-0.6,0.3-1,1.1-1s1,0.5,1,1v0.2h-2.1V12.9z"/>
</g>
</svg>
