<svg xmlns="http://www.w3.org/2000/svg" viewBox="0 0 31.18 30.02"><defs><style>.cls-1{fill:#e5ff00;}</style></defs><g id="Layer_2" data-name="Layer 2"><g id="Layer_1-2" data-name="Layer 1"><path class="cls-1" d="M30.49,13.18l-1.26-1.45a2.78,2.78,0,0,1-.68-2.1l.17-1.9a2.78,2.78,0,0,0-2.16-3L24.7,4.33A2.76,2.76,0,0,1,22.92,3l-1-1.65A2.77,2.77,0,0,0,18.44.23L16.69,1a2.8,2.8,0,0,1-2.2,0L12.74.23a2.77,2.77,0,0,0-3.5,1.14L8.27,3a2.8,2.8,0,0,1-1.79,1.3l-1.85.41a2.8,2.8,0,0,0-2.17,3l.18,1.91A2.79,2.79,0,0,1,2,11.71L.69,13.18a2.79,2.79,0,0,0,0,3.67L2,18.3a2.81,2.81,0,0,1,.68,2.09l-.18,1.93a2.8,2.8,0,0,0,2.16,3l1.86.42A2.82,2.82,0,0,1,8.27,27l1,1.63a2.79,2.79,0,0,0,3.51,1.14L14.49,29a2.83,2.83,0,0,1,2.21,0l1.74.75a2.79,2.79,0,0,0,3.5-1.15l1-1.64a2.78,2.78,0,0,1,1.78-1.3l1.86-.42a2.78,2.78,0,0,0,2.16-3l-.17-1.91a2.77,2.77,0,0,1,.68-2.09l1.26-1.45A2.79,2.79,0,0,0,30.49,13.18ZM12.73,22.1,7,16.38l2.22-2.22,3.49,3.5L21.5,8.85l2.22,2.22Z"/></g></g></svg>